<svg xmlns="http://www.w3.org/2000/svg" width="24" height="24" viewBox="0 0 24 24" fill="none"><path d="M9.814 2.041c-1.483.156-2.819.8-3.896 1.877-1.911 1.911-2.434 4.653-1.368 7.18.134.319.23.484.35.604a.984.984 0 0 0 1.405-.005c.198-.198.316-.527.285-.793a3.004 3.004 0 0 0-.187-.555 4.555 4.555 0 0 1-.392-1.652c-.132-2.844 2.43-5.113 5.232-4.632A4.506 4.506 0 0 1 14.88 9.52c-.13.571-.064.89.246 1.188.184.176.388.252.674.252.285 0 .45-.061.655-.241.185-.163.275-.338.358-.699a6.456 6.456 0 0 0-.156-3.574c-.543-1.636-1.782-3.051-3.317-3.787a6.61 6.61 0 0 0-3.526-.618m.146 4.021c-.837.179-1.557.843-1.855 1.711-.083.241-.085.319-.105 3.458l-.02 3.21-.28-.206c-.325-.239-.895-.521-1.24-.613a3.552 3.552 0 0 0-1.367-.047c-.876.153-1.361.507-1.617 1.181-.107.282-.143.82-.077 1.14.06.289 2.688 5.578 2.88 5.797a.984.984 0 0 0 1.201.203c.347-.189.52-.486.52-.894 0-.235-.026-.293-1.3-2.841-.715-1.431-1.3-2.611-1.3-2.621 0-.047.454-.014.628.045.455.154 1.085.711 1.881 1.663.336.402.503.57.63.631.411.2.86.128 1.164-.184.316-.325.297-.014.297-4.924 0-4.83-.016-4.529.252-4.693a.451.451 0 0 1 .496 0c.261.159.252.066.252 2.753 0 1.576.015 2.518.043 2.672.122.667.64 1.27 1.288 1.497.141.05 1.098.193 2.654.398 1.729.228 2.505.346 2.675.407a1.971 1.971 0 0 1 1.279 1.413c.079.309.079 1.076.001 1.602a5.958 5.958 0 0 1-.412 1.5c-.236.578-.25.822-.068 1.154a.99.99 0 0 0 1.43.344c.201-.133.321-.326.535-.858.396-.985.547-1.807.552-3 .003-.776-.006-.895-.09-1.22a4.822 4.822 0 0 0-.784-1.57 4.095 4.095 0 0 0-2.343-1.407 145.83 145.83 0 0 0-2.38-.323 191.702 191.702 0 0 1-2.27-.304l-.11-.022-.001-2.427c0-2.739-.002-2.759-.288-3.326-.502-.997-1.642-1.536-2.751-1.299" fill="#10161F" fill-rule="evenodd"/></svg>