<svg xmlns="http://www.w3.org/2000/svg" width="24" height="24" viewBox="0 0 24 24" fill="none"><path d="M11 2.771c-.682.247-1.043.641-1.422 1.553-.66 1.59-1.744 3.07-3.247 4.436-1.351 1.227-2.122 2.184-2.711 3.37-.816 1.642-.988 3.211-.525 4.793.648 2.213 2.547 4.052 4.934 4.78.394.12.517.141.751.128a1.454 1.454 0 0 0 1.252-.862c.154-.331.151-.814-.006-1.289-.399-1.205-.264-2.124.449-3.068.246-.326.98-1.052 1.063-1.052.024 0 .124.129.223.286.098.158.392.576.652.93.489.666.7 1.045.792 1.424.076.318.067 1.133-.02 1.76-.072.511-.072.554-.009.799a1.48 1.48 0 0 0 1.224 1.124c.289.047.624-.004 1.46-.222 1.381-.36 2.464-.97 3.329-1.876 1.074-1.123 1.621-2.508 1.774-4.485.134-1.732-.214-3.256-1.182-5.181a17.995 17.995 0 0 0-1.106-1.888c-.327-.489-.937-1.291-1.124-1.479a1.779 1.779 0 0 0-2.071-.313 1.465 1.465 0 0 0-.251.153c-.09.079-.115.05-.226-.272-.144-.413-.533-1.187-.802-1.597a7.477 7.477 0 0 0-1.091-1.331c-.305-.303-.46-.422-.698-.54-.288-.142-.332-.152-.729-.163-.362-.01-.46.002-.683.082m.918 2.259c.619.675 1.012 1.375 1.342 2.391.241.743.35.951.659 1.262.259.26.569.423.908.478.527.085 1.091-.155 1.359-.579a.847.847 0 0 1 .134-.179c.028 0 .468.594.712.962.948 1.423 1.595 2.837 1.849 4.04.162.772.146 1.891-.04 2.775-.314 1.487-1.025 2.455-2.274 3.094-.316.161-1.195.486-1.316.486-.017 0-.02-.193-.006-.43.05-.844-.059-1.63-.313-2.25-.182-.444-.335-.695-.867-1.419a18.193 18.193 0 0 1-.656-.948c-.367-.597-.888-1.001-1.438-1.115a3.002 3.002 0 0 0-.594-.031c-.326.014-.402.033-.666.164-.373.184-1.066.772-1.497 1.27-.717.83-1.115 1.584-1.318 2.499-.082.372-.098 1.522-.025 1.819a.595.595 0 0 1 .03.194c-.028.027-.577-.28-.888-.496-.886-.617-1.58-1.47-1.893-2.327-.442-1.208-.36-2.349.26-3.63.401-.829.877-1.452 1.756-2.3 1.836-1.771 2.375-2.376 3.124-3.5.549-.824.957-1.598 1.239-2.35.04-.104.086-.19.103-.19s.16.139.316.31" fill="#10161F" fill-rule="evenodd"/></svg>